<?xml version="1.0" encoding="utf-8" standalone="yes"?>
<!DOCTYPE svg PUBLIC "-//W3C//DTD SVG 1.1//EN" "http://www.w3.org/Graphics/SVG/1.1/DTD/svg11.dtd">
<svg width="612" height="385" viewBox="0 0 612 385" style="fill:none;stroke:none;fill-rule:evenodd;clip-rule:evenodd;stroke-linecap:round;stroke-linejoin:round;stroke-miterlimit:1.5;" version="1.1" xmlns="http://www.w3.org/2000/svg" xmlns:xlink="http://www.w3.org/1999/xlink"><style id="fontImports">@import url("https://fonts.googleapis.com/css2?family=Roboto:wght@400;700&amp;display=block");</style><g id="items" style="isolation: isolate"><g id="blend" style="mix-blend-mode:multiply"><g id="g-root--1.cu_sy_1lxer0v3di6fi-fill" data-item-order="999889412" data-item-id="-1.cu_sy_1lxer0v3di6fi" data-item-class="Part Fill Stroke ColorFillGray ColorStrokeGray" data-item-index="-1" data-renderer-id="0" transform="translate(230, 74)"><g id="-1.cu_sy_1lxer0v3di6fi-fill" stroke="none" fill="#A3A3A3"><g><path d="M 65.766602 298C 80.754802 298 106.000002 233.529 106.000002 154C 106.000002 74.471 80.754802 10 65.766602 10C 80.775202 10.0075 92.941702 74.6668 92.941702 154C 92.941702 233.333 80.775202 297.992 65.766602 298ZM 65.765897 298C 80.774597 297.992 92.941097 233.333 92.941097 154C 92.941097 74.6668 80.774597 10.0075 65.765897 10L 51.957397 10C 66.060697 15.1659 77.199297 77.8539 77.199297 154C 77.199297 230.146 65.382597 292.834 51.279297 298L 65.765897 298ZM 77.2 154C 77.2 230.146 65.3833 292.834 51.28 298L 50.0615 298C 35.0734 298 10 233.529 10 154C 10 74.471 35.0734 10 50.0615 10C 50.6991 10 51.9581 10 51.9581 10C 66.0614 15.1659 77.2 77.8539 77.2 154Z"></path></g></g></g><g id="g-root-0.cr-medium_cr_146r7m73di5mv-fill" data-item-order="999889414" data-item-id="0.cr-medium_cr_146r7m73di5mv" data-item-class="Shape Stroke Fill Part Indexed_0 ColorStrokeBlack" data-item-index="0" data-renderer-id="0" transform="translate(398, 181.99996948242188)"><g id="0.cr-medium_cr_146r7m73di5mv-fill" stroke="none" fill="#562d69"><g><path d="M 10 46C 10 65.882251 26.117749 82 46 82C 65.882251 82 82 65.882251 82 46C 82 26.117749 65.882251 10 46 10C 26.117749 10 10 26.117749 10 46"></path></g></g></g><g id="g-root-3.line_sy_18ntnwv3di70s-fill" data-item-order="999889417" data-item-id="3.line_sy_18ntnwv3di70s" data-item-class="Part Indexed Stroke" data-item-index="3" data-renderer-id="0" transform="translate(146.109375, 241.99996948242188)"></g><g id="g-root-3.cr-small_cr_qn6j4f3djksl-fill" data-item-order="999889418" data-item-id="3.cr-small_cr_qn6j4f3djksl" data-item-class="Shape Stroke Fill Part Indexed ColorStrokeBlack" data-item-index="3" data-renderer-id="0" transform="translate(86, 271.9999694824219)"><g id="3.cr-small_cr_qn6j4f3djksl-fill" stroke="none" fill="#de9ffb"><g><path d="M 10 40C 10.000002 56.568544 23.431459 70.000002 40.000002 70.000002C 56.568544 70.000002 70.000002 56.568544 70.000002 40.000002C 70.000002 23.431459 56.568544 10.000002 40.000002 10.000002C 23.431459 10.000002 10.000002 23.431459 10.000002 40.000002"></path></g></g></g><g id="g-root-2.line_sy_94n5u73di6f6-fill" data-item-order="999889421" data-item-id="2.line_sy_94n5u73di6f6" data-item-class="Part Indexed Stroke" data-item-index="2" data-renderer-id="0" transform="translate(146, 217.99996948242188)"></g><g id="g-root-2.cr-small_cr_1lza6a73di5fv-fill" data-item-order="999889422" data-item-id="2.cr-small_cr_1lza6a73di5fv" data-item-class="Shape Stroke Fill Part Indexed ColorStrokeBlack" data-item-index="2" data-renderer-id="0" transform="translate(86, 187.99996948242188)"><g id="2.cr-small_cr_1lza6a73di5fv-fill" stroke="none" fill="#b179ca"><g><path d="M 10 40C 10.000002 56.568544 23.431459 70.000002 40.000002 70.000002C 56.568544 70.000002 70.000002 56.568544 70.000002 40.000002C 70.000002 23.431459 56.568544 10.000002 40.000002 10.000002C 23.431459 10.000002 10.000002 23.431459 10.000002 40.000002"></path></g></g></g><g id="g-root-1.line_sy_qvap8v3di77s-fill" data-item-order="999889425" data-item-id="1.line_sy_qvap8v3di77s" data-item-class="Part Indexed Indexed_1 Stroke" data-item-index="1" data-renderer-id="0" transform="translate(146, 134)"></g><g id="g-root-1.cr-small_cr_dkgnyn3di5mx-fill" data-item-order="999889426" data-item-id="1.cr-small_cr_dkgnyn3di5mx" data-item-class="Shape Stroke Fill Part Indexed Indexed_1 ColorStrokeBlack" data-item-index="1" data-renderer-id="0" transform="translate(86, 104)"><g id="1.cr-small_cr_dkgnyn3di5mx-fill" stroke="none" fill="#83539a"><g><path d="M 10 40C 10.000002 56.568544 23.431459 70.000002 40.000002 70.000002C 56.568544 70.000002 70.000002 56.568544 70.000002 40.000002C 70.000002 23.431459 56.568544 10.000002 40.000002 10.000002C 23.431459 10.000002 10.000002 23.431459 10.000002 40.000002"></path></g></g></g><g id="g-root-tx_pgwatcha_1ur6c0f3djksi-fill" data-item-order="1000000000" data-item-id="tx_pgwatcha_1ur6c0f3djksi" data-item-class="Label Stroke Title ColorStrokeBlack" data-item-index="none" data-renderer-id="0" transform="translate(56, 2)"><g id="tx_pgwatcha_1ur6c0f3djksi-fill" stroke="none" fill="#666666"><g><text style="font: 20px &quot;Roboto&quot;, sans-serif; white-space: pre;"><tspan x="15.14" y="34.33" dominant-baseline="ideographic">pgwatch: A Comprehensive Monitoring Solution</tspan></text></g></g></g><g id="g-root-tx_what_qs6btb3djk7d-fill" data-item-order="1000000000" data-item-id="tx_what_qs6btb3djk7d" data-item-class="Label Stroke Indexed Indexed_1 ColorStrokeBlack" data-item-index="1" data-renderer-id="0" transform="translate(14, 122)"><g id="tx_what_qs6btb3djk7d-fill" stroke="none" fill="#666666"><g><text style="font: 20px &quot;Roboto&quot;, sans-serif; white-space: pre;"><tspan x="12.37" y="34.33" dominant-baseline="ideographic">What?</tspan></text></g></g></g><g id="g-root-sear_9ljj3d5hj7-fill" data-item-order="1000000000" data-item-id="sear_9ljj3d5hj7" data-item-class="Icon Stroke Indexed Indexed_1 InsideFill InsideColorFill ColorStrokeBlack" data-item-index="1" data-renderer-id="0" transform="translate(98, 116)"></g><g id="g-root-tx_how_8znd5b3djkeg-fill" data-item-order="1000000000" data-item-id="tx_how_8znd5b3djkeg" data-item-class="Label Stroke Indexed ColorStrokeBlack" data-item-index="2" data-renderer-id="0" transform="translate(14, 205.99996948242188)"><g id="tx_how_8znd5b3djkeg-fill" stroke="none" fill="#666666"><g><text style="font: 20px &quot;Roboto&quot;, sans-serif; white-space: pre;"><tspan x="17.87" y="34.33" dominant-baseline="ideographic">How?</tspan></text></g></g></g><g id="g-root-sett_qwjqkv3d42yq-fill" data-item-order="1000000000" data-item-id="sett_qwjqkv3d42yq" data-item-class="Icon Stroke Indexed InsideFill InsideColorFill ColorStrokeBlack" data-item-index="2" data-renderer-id="0" transform="translate(98, 199.99996948242188)"></g><g id="g-root-appr_zqbbkf3d435s-fill" data-item-order="1000000000" data-item-id="appr_zqbbkf3d435s" data-item-class="Icon Stroke InsideFill InsideColorFill ColorStrokeBlack" data-item-index="none" data-renderer-id="0" transform="translate(410, 193.99996948242188)"></g><g id="g-root-tx_database_zk2hjj3djle6-fill" data-item-order="1000000000" data-item-id="tx_database_zk2hjj3djle6" data-item-class="Label Stroke ColorStrokeBlack" data-item-index="none" data-renderer-id="0" transform="translate(482, 193.99996948242188)"><g id="tx_database_zk2hjj3djle6-fill" stroke="none" fill="#666666"><g><text style="font: 20px &quot;Roboto&quot;, sans-serif; white-space: pre;"><tspan x="12" y="34.33" dominant-baseline="ideographic">Database </tspan><tspan x="12" y="58.33" dominant-baseline="ideographic">Monitoring</tspan></text></g></g></g><g id="g-root-tx_where_141rexb3djjm7-fill" data-item-order="1000000000" data-item-id="tx_where_141rexb3djjm7" data-item-class="Label Stroke Indexed ColorStrokeBlack" data-item-index="3" data-renderer-id="0" transform="translate(2, 289.9999694824219)"><g id="tx_where_141rexb3djjm7-fill" stroke="none" fill="#666666"><g><text style="font: 20px &quot;Roboto&quot;, sans-serif; white-space: pre;"><tspan x="14" y="34.33" dominant-baseline="ideographic">Where?</tspan></text></g></g></g><g id="g-root-glob_1ly1b9r3d45c9-fill" data-item-order="1000000000" data-item-id="glob_1ly1b9r3d45c9" data-item-class="Icon Stroke Indexed InsideFill InsideColorFill ColorStrokeBlack" data-item-index="3" data-renderer-id="0" transform="translate(98, 283.9999694824219)"></g><g id="g-root--1.cu_sy_1lxer0v3di6fi-stroke" data-item-order="999889412" data-item-id="-1.cu_sy_1lxer0v3di6fi" data-item-class="Part Fill Stroke ColorFillGray ColorStrokeGray" data-item-index="-1" data-renderer-id="0" transform="translate(230, 74)"><g id="-1.cu_sy_1lxer0v3di6fi-stroke" fill="none" stroke-linecap="round" stroke-linejoin="round" stroke-miterlimit="4" stroke="#888888" stroke-width="2"><g><path d="M 65.766602 298C 80.754802 298 106.000002 233.529 106.000002 154C 106.000002 74.471 80.754802 10 65.766602 10C 80.775202 10.0075 92.941702 74.6668 92.941702 154C 92.941702 233.3332 80.775202 297.9925 65.766602 298ZM 65.765897 298C 80.774597 297.9925 92.941097 233.3332 92.941097 154C 92.941097 74.6668 80.774597 10.0075 65.765897 10L 51.957397 10C 66.060697 15.1659 77.199297 77.8539 77.199297 154C 77.199297 230.1462 65.382597 292.8341 51.279297 298L 65.765897 298ZM 77.2 154C 77.2 230.1462 65.3833 292.8341 51.28 298L 50.0615 298C 35.0734 298 10 233.529 10 154C 10 74.471 35.0734 10 50.0615 10C 50.6991 10 51.9581 10 51.9581 10C 66.0614 15.1659 77.2 77.8539 77.2 154Z"></path></g></g></g><g id="g-root-0.cr-medium_cr_146r7m73di5mv-stroke" data-item-order="999889414" data-item-id="0.cr-medium_cr_146r7m73di5mv" data-item-class="Shape Stroke Fill Part Indexed_0 ColorStrokeBlack" data-item-index="0" data-renderer-id="0" transform="translate(398, 181.99996948242188)"><g id="0.cr-medium_cr_146r7m73di5mv-stroke" fill="none" stroke-linecap="round" stroke-linejoin="round" stroke-miterlimit="4" stroke="#ffffff" stroke-width="2"><g><path d="M 10 46C 10 65.882251 26.117749 82 46 82C 65.882251 82 82 65.882251 82 46C 82 26.117749 65.882251 10 46 10C 26.117749 10 10 26.117749 10 46"></path></g></g></g><g id="g-root-3.line_sy_18ntnwv3di70s-stroke" data-item-order="999889417" data-item-id="3.line_sy_18ntnwv3di70s" data-item-class="Part Indexed Stroke" data-item-index="3" data-renderer-id="0" transform="translate(146.109375, 241.99996948242188)"><g id="3.line_sy_18ntnwv3di70s-stroke" fill="none" stroke-linecap="round" stroke-linejoin="round" stroke-miterlimit="4" stroke="#A8DD38" stroke-width="2"><g><path d="M 254.08061 10.859985L 129.89061 69.999985L 10.00061 69.999985"></path><path d="M 251.50061 19.259985L 254.50061 10.659985L 245.90061 7.559985" stroke-dasharray="none"></path></g></g></g><g id="g-root-3.cr-small_cr_qn6j4f3djksl-stroke" data-item-order="999889418" data-item-id="3.cr-small_cr_qn6j4f3djksl" data-item-class="Shape Stroke Fill Part Indexed ColorStrokeBlack" data-item-index="3" data-renderer-id="0" transform="translate(86, 271.9999694824219)"><g id="3.cr-small_cr_qn6j4f3djksl-stroke" fill="none" stroke-linecap="round" stroke-linejoin="round" stroke-miterlimit="4" stroke="#ffffff" stroke-width="2"><g><path d="M 10 40C 10.000002 56.568544 23.431459 70.000002 40.000002 70.000002C 56.568544 70.000002 70.000002 56.568544 70.000002 40.000002C 70.000002 23.431459 56.568544 10.000002 40.000002 10.000002C 23.431459 10.000002 10.000002 23.431459 10.000002 40.000002"></path></g></g></g><g id="g-root-2.line_sy_94n5u73di6f6-stroke" data-item-order="999889421" data-item-id="2.line_sy_94n5u73di6f6" data-item-class="Part Indexed Stroke" data-item-index="2" data-renderer-id="0" transform="translate(146, 217.99996948242188)"><g id="2.line_sy_94n5u73di6f6-stroke" fill="none" stroke-linecap="round" stroke-linejoin="round" stroke-miterlimit="4" stroke="#44E095" stroke-width="2"><g><path d="M 248 10L 130 10L 10 10"></path><path d="M 242 16.5L 248.5 10L 242 3.5" stroke-dasharray="none"></path></g></g></g><g id="g-root-2.cr-small_cr_1lza6a73di5fv-stroke" data-item-order="999889422" data-item-id="2.cr-small_cr_1lza6a73di5fv" data-item-class="Shape Stroke Fill Part Indexed ColorStrokeBlack" data-item-index="2" data-renderer-id="0" transform="translate(86, 187.99996948242188)"><g id="2.cr-small_cr_1lza6a73di5fv-stroke" fill="none" stroke-linecap="round" stroke-linejoin="round" stroke-miterlimit="4" stroke="#ffffff" stroke-width="2"><g><path d="M 10 40C 10.000002 56.568544 23.431459 70.000002 40.000002 70.000002C 56.568544 70.000002 70.000002 56.568544 70.000002 40.000002C 70.000002 23.431459 56.568544 10.000002 40.000002 10.000002C 23.431459 10.000002 10.000002 23.431459 10.000002 40.000002"></path></g></g></g><g id="g-root-1.line_sy_qvap8v3di77s-stroke" data-item-order="999889425" data-item-id="1.line_sy_qvap8v3di77s" data-item-class="Part Indexed Indexed_1 Stroke" data-item-index="1" data-renderer-id="0" transform="translate(146, 134)"><g id="1.line_sy_qvap8v3di77s-stroke" fill="none" stroke-linecap="round" stroke-linejoin="round" stroke-miterlimit="4" stroke="#1AC6FF" stroke-width="2"><g><path d="M 254.19 69.14L 130 10L 10 10"></path><path d="M 246 72.4L 254.6 69.4L 251.6 60.7" stroke-dasharray="none"></path></g></g></g><g id="g-root-1.cr-small_cr_dkgnyn3di5mx-stroke" data-item-order="999889426" data-item-id="1.cr-small_cr_dkgnyn3di5mx" data-item-class="Shape Stroke Fill Part Indexed Indexed_1 ColorStrokeBlack" data-item-index="1" data-renderer-id="0" transform="translate(86, 104)"><g id="1.cr-small_cr_dkgnyn3di5mx-stroke" fill="none" stroke-linecap="round" stroke-linejoin="round" stroke-miterlimit="4" stroke="#ffffff" stroke-width="2"><g><path d="M 10 40C 10.000002 56.568544 23.431459 70.000002 40.000002 70.000002C 56.568544 70.000002 70.000002 56.568544 70.000002 40.000002C 70.000002 23.431459 56.568544 10.000002 40.000002 10.000002C 23.431459 10.000002 10.000002 23.431459 10.000002 40.000002"></path></g></g></g><g id="g-root-tx_pgwatcha_1ur6c0f3djksi-stroke" data-item-order="1000000000" data-item-id="tx_pgwatcha_1ur6c0f3djksi" data-item-class="Label Stroke Title ColorStrokeBlack" data-item-index="none" data-renderer-id="0" transform="translate(56, 2)"></g><g id="g-root-tx_what_qs6btb3djk7d-stroke" data-item-order="1000000000" data-item-id="tx_what_qs6btb3djk7d" data-item-class="Label Stroke Indexed Indexed_1 ColorStrokeBlack" data-item-index="1" data-renderer-id="0" transform="translate(14, 122)"></g><g id="g-root-sear_9ljj3d5hj7-stroke" data-item-order="1000000000" data-item-id="sear_9ljj3d5hj7" data-item-class="Icon Stroke Indexed Indexed_1 InsideFill InsideColorFill ColorStrokeBlack" data-item-index="1" data-renderer-id="0" transform="translate(98, 116)"><g id="sear_9ljj3d5hj7-stroke" fill="none" stroke-linecap="round" stroke-linejoin="round" stroke-miterlimit="4" stroke="#ffffff" stroke-width="2"><g><path d="M 11.285714 25.222857C 11.284246 32.921165 17.524548 39.162659 25.222857 39.162659C 32.921165 39.162659 39.161465 32.921165 39.16 25.222857C 39.161465 17.524548 32.921165 11.283056 25.222857 11.283056C 17.524548 11.283056 11.284246 17.524548 11.285714 25.222857M 44.714287 44.714287L 35.071426 35.071426"></path></g></g></g><g id="g-root-tx_how_8znd5b3djkeg-stroke" data-item-order="1000000000" data-item-id="tx_how_8znd5b3djkeg" data-item-class="Label Stroke Indexed ColorStrokeBlack" data-item-index="2" data-renderer-id="0" transform="translate(14, 205.99996948242188)"></g><g id="g-root-sett_qwjqkv3d42yq-stroke" data-item-order="1000000000" data-item-id="sett_qwjqkv3d42yq" data-item-class="Icon Stroke Indexed InsideFill InsideColorFill ColorStrokeBlack" data-item-index="2" data-renderer-id="0" transform="translate(98, 199.99996948242188)"><g id="sett_qwjqkv3d42yq-stroke" fill="none" stroke-linecap="round" stroke-linejoin="round" stroke-miterlimit="4" stroke="#ffffff" stroke-width="2"><g><path d="M 10.7815 16.751499C 10.7815 20.065208 17.161442 22.751501 25.0315 22.751501C 32.901558 22.751501 39.281502 20.065208 39.281502 16.751499C 39.281502 13.437792 32.901558 10.7515 25.0315 10.7515C 17.161442 10.7515 10.7815 13.437792 10.7815 16.751499ZM 25.0315 28.75C 17.1625 28.75 10.7815 26.065001 10.7815 22.75M 25.0315 35.5C 17.1625 35.5 10.7815 32.814999 10.7815 29.5M 25.0315 42.25C 17.1625 42.25 10.7815 39.564999 10.7815 36.25L 10.7815 16.75M 39.281502 16.751499L 39.279999 23.501501M 34.498001 35.548C 34.498001 36.739277 35.463722 37.704998 36.654999 37.704998C 37.846279 37.704998 38.812 36.739277 38.812 35.548C 38.812 34.35672 37.846279 33.390999 36.654999 33.390999C 35.463722 33.390999 34.498001 34.35672 34.498001 35.548ZM 38.4865 27.206499L 39.122501 29.2945C 39.338844 30.014793 40.07724 30.443394 40.810001 30.274L 42.926498 29.783501C 43.749905 29.597904 44.598152 29.970509 45.018517 30.702448C 45.438885 31.434387 45.333252 32.35482 44.758003 32.9725L 43.276001 34.568501C 42.768936 35.11961 42.768936 35.967388 43.275997 36.518497L 44.7565 38.114502C 45.331753 38.732178 45.437386 39.652611 45.017017 40.384552C 44.596653 41.116493 43.748405 41.489098 42.925003 41.303497L 40.808498 40.813C 40.076241 40.644501 39.338818 41.072914 39.122501 41.7925L 38.4865 43.880501C 38.243435 44.688885 37.499134 45.242306 36.654999 45.242306C 35.810863 45.242306 35.066563 44.688885 34.823502 43.880501L 34.1875 41.800003C 33.971157 41.079708 33.232758 40.651108 32.5 40.820503L 30.383499 41.311001C 29.560095 41.496597 28.711849 41.123993 28.291483 40.392052C 27.871115 39.660114 27.976749 38.739677 28.552 38.121998L 30.032499 36.526001C 30.539558 35.974888 30.539558 35.127113 30.032499 34.575996L 28.552 32.9785C 27.976749 32.360821 27.871115 31.440388 28.291483 30.708447C 28.711849 29.976509 29.560095 29.603905 30.383499 29.789499L 32.5 30.272501C 33.232639 30.441107 33.970531 30.012802 34.1875 29.293001L 34.823502 27.205C 35.066895 26.396715 35.811424 25.843597 36.65556 25.843943C 37.499691 25.84429 38.243767 26.398018 38.4865 27.206499Z"></path></g></g></g><g id="g-root-appr_zqbbkf3d435s-stroke" data-item-order="1000000000" data-item-id="appr_zqbbkf3d435s" data-item-class="Icon Stroke InsideFill InsideColorFill ColorStrokeBlack" data-item-index="none" data-renderer-id="0" transform="translate(410, 193.99996948242188)"><g id="appr_zqbbkf3d435s-stroke" fill="none" stroke-linecap="round" stroke-linejoin="round" stroke-miterlimit="4" stroke="#ffffff" stroke-width="2"><g><path d="M 21 45L 29 45M 11 33L 33 33M 27 39L 27 42C 27 43.656857 25.656855 45 24 45M 51 29L 51 13C 51 11.895431 50.104568 11 49 11L 13 11C 11.895431 11 11 11.895431 11 13L 11 37C 11 38.104568 11.895431 39 13 39L 29 39M 33 45C 33 51.627419 38.372581 57 45 57C 51.627419 57 57 51.627419 57 45C 57 38.372581 51.627419 33 45 33C 38.372581 33 33 38.372581 33 45ZM 50.348 41.512001L 44.537998 49.257999C 44.276604 49.605644 43.877338 49.82291 43.44347 49.8536C 43.009598 49.884289 42.583725 49.725388 42.275997 49.417999L 39.276001 46.417999"></path></g></g></g><g id="g-root-tx_database_zk2hjj3djle6-stroke" data-item-order="1000000000" data-item-id="tx_database_zk2hjj3djle6" data-item-class="Label Stroke ColorStrokeBlack" data-item-index="none" data-renderer-id="0" transform="translate(482, 193.99996948242188)"></g><g id="g-root-tx_where_141rexb3djjm7-stroke" data-item-order="1000000000" data-item-id="tx_where_141rexb3djjm7" data-item-class="Label Stroke Indexed ColorStrokeBlack" data-item-index="3" data-renderer-id="0" transform="translate(2, 289.9999694824219)"></g><g id="g-root-glob_1ly1b9r3d45c9-stroke" data-item-order="1000000000" data-item-id="glob_1ly1b9r3d45c9" data-item-class="Icon Stroke Indexed InsideFill InsideColorFill ColorStrokeBlack" data-item-index="3" data-renderer-id="0" transform="translate(98, 283.9999694824219)"><g id="glob_1ly1b9r3d45c9-stroke" fill="none" stroke-linecap="round" stroke-linejoin="round" stroke-miterlimit="4" stroke="#ffffff" stroke-width="2"><g><path d="M 13 27.264999L 31 27.264999C 31 27.264999 33.25 27.264999 33.25 29.514999L 33.25 43.014999C 33.25 43.014999 33.25 45.264999 31 45.264999L 13 45.264999C 13 45.264999 10.75 45.264999 10.75 43.014999L 10.75 29.514999C 10.75 29.514999 10.75 27.264999 13 27.264999M 16 31.014999C 16.828426 31.014999 17.5 31.686573 17.5 32.514999C 17.5 33.343426 16.828426 34.014999 16 34.014999C 15.171573 34.014999 14.5 33.343426 14.5 32.514999C 14.5 31.686573 15.171573 31.014999 16 31.014999M 32.564499 44.630501L 27.446499 35.1805C 27.157101 34.64798 26.609867 34.306004 26.004381 34.279289C 25.398891 34.252579 24.823669 34.545033 24.488499 35.049999L 20.2885 41.366501L 17.707001 39.099998C 17.341866 38.778797 16.858288 38.62632 16.374952 38.679993C 15.891618 38.733665 15.453272 38.988518 15.1675 39.382L 11.383 44.577999M 44.125 34.764999L 41.5 31.764999L 38.875 34.764999M 41.5 31.764999L 41.5 40.764999C 41.5 41.593426 40.828426 42.264999 40 42.264999L 37.75 42.264999M 38.5 15.055C 42.227501 15.055 45.25 14.0875 45.25 12.895C 45.25 11.7025 42.227501 10.735 38.5 10.735C 34.772499 10.735 31.75 11.7025 31.75 12.895C 31.75 14.0875 34.772499 15.055 38.5 15.055ZM 31.75 19.375L 31.75 12.895M 45.25 12.895L 45.25 19.375M 31.75 21.73L 31.75 19.375M 45.25 19.375L 45.25 25.855C 45.25 27.055 42.227501 28.014999 38.5 28.014999C 38.016998 28.014999 37.544502 27.998499 37.09 27.9685M 45.25 17.125C 45.25 18.325001 42.227501 19.285 38.5 19.285C 34.772499 19.285 31.75 18.317501 31.75 17.125M 45.25 21.625C 45.25 22.825001 42.227501 23.785 38.5 23.785C 34.772499 23.785 31.75 22.817501 31.75 21.625"></path></g></g></g></g></g></svg>